<?xml version="1.0" encoding="utf-8" ?>
<svg xmlns="http://www.w3.org/2000/svg" xmlns:xlink="http://www.w3.org/1999/xlink" width="1254" height="1254" viewBox="0 0 1254 1254"><path d="M0 0L1254 0L1254 1254L0 1254L0 0Z"/><path fill="#EF70CD" d="M613.935 223.755C620.738 223.112 627.982 223.405 634.818 223.529C683.915 224.419 730.536 240.422 773.419 263.665C821.414 289.677 910.025 359.142 925.781 413.126C932.046 434.593 923.188 457.65 912.849 476.496C897.146 505.122 880.513 519.475 849.335 528.567C853.601 545.516 860.124 561.194 874.881 571.977C880.457 575.498 886.101 578.694 891.757 582.126C946.678 615.45 949.43 696.821 894.084 730.945C892.132 732.149 889.856 732.382 887.733 731.519C887.554 731.092 887.374 730.666 887.195 730.239C890.114 727.382 898.682 720.756 901.224 718.408C911.958 708.632 920.017 696.277 924.637 682.514C935.644 649.486 922.441 610.938 894.515 591.07C880.582 581.157 868.778 577.504 858.214 563.384C844.007 544.393 844.862 525.929 835.422 505.815C822.017 477.254 779.772 451.68 749.81 441.948C747.197 463.299 742.423 498.034 747.565 518.898C749.667 525.548 756.847 537.561 762.049 541.823C781.259 557.559 792.384 574.373 782.618 599.652C780.674 604.683 773.756 615.398 768.369 617.607C765.973 617.342 767.037 617.794 765.173 615.977C764.37 611.872 768.718 609.774 771.265 606.688C775.721 601.288 778.108 595.031 779.35 588.327C784.242 561.93 763.187 554.681 750.389 536.62C739.425 521.378 738.85 512.317 739.31 493.925C739.77 475.537 741.163 458.754 744.046 440.415C705.505 448.44 667.53 457.856 628.616 465.354C579.126 474.889 531.246 481.212 481.428 487.601C485.391 489.578 490.276 492.96 494.082 495.435C532.102 523.491 555.984 556.855 547.045 606.02C545.77 610.435 545.05 619.866 542.796 623.877C534.582 638.492 518.139 668.457 545.872 673.474C549.176 674.072 554.79 672.839 556.609 676.659C556.096 678.511 556.165 678.392 554.682 679.617C545.509 681.986 529.759 676.006 526.349 666.56C518.528 644.892 536.997 630.069 540.327 609.49C543.126 592.189 545.492 575.91 538.238 559.108C535.545 553.92 529.84 549.848 525.399 546.358C506.771 531.719 485.211 529.958 464.286 539.852C465.161 544.207 471.818 556.082 464.073 554.837C460.787 552.112 459.494 546.108 458.486 542.061C454.082 524.38 456.585 506.763 460.917 489.431C448.208 490.595 434.178 492.121 421.497 492.351C415.84 513.392 402.171 528.477 389.829 546.167C366.376 579.782 367.307 617.951 400.981 644.158C407.289 649.067 415.308 652.819 422.228 657.259L422.185 658.065C420.017 660.283 408.933 666.254 404.282 670.007C389.797 681.261 378.96 696.132 377.338 714.752C374.63 745.838 388.016 778.14 422.873 779.973C431.393 780.421 438.383 778.412 446.718 778.543C448.312 778.568 449.087 779.338 449.956 780.447C449.557 782.805 450.104 781.904 448.514 783.381C436.815 786.632 424.648 786.691 412.665 784.35C377.865 777.551 366.044 736.11 372.769 705.375C377.385 684.274 393.511 668.8 411.652 657.754C361.222 626.965 354.866 584.933 388.24 537.135C400.054 520.215 408.499 512.394 415.664 492.508C407.507 492.43 395.872 492.318 391.937 483.61C388.437 475.865 393.155 467.451 398.078 461.514C411.125 445.78 429.26 434.661 446.226 423.587C436.373 419.593 427.25 413.993 419.229 407.014C384.027 376.046 379.259 332.245 411.755 297.056C443.867 262.281 502.406 243.21 547.533 231.997C567.542 227.026 593.512 224.936 613.935 223.755Z"/><path d="M609.479 229.87C616.214 229.032 623.659 229.413 630.455 229.447C679.455 229.689 725.935 244.822 768.828 267.887C816.605 293.578 904.334 361.117 920.085 414.988C925.813 434.578 917.053 456.14 907.707 473.23C892.937 500.238 877.423 514.169 847.967 522.872C846.704 517.845 845.035 512.928 842.978 508.17C827.318 472.349 788.298 450.837 753.513 436.925C721.958 424.305 691.693 416.676 658.764 409.349C602.981 396.936 544.162 389.651 488.368 406.073C476.318 409.62 465.546 414.142 454.02 419.159C448.42 369.146 494.194 359.781 533.879 354.71C629.337 342.227 731.175 357.491 806.996 420.514C813.617 426.018 812.022 430.478 812.09 437.858C812.96 439.245 813.143 439.124 814.689 439.822C815.511 439.661 816.041 439.773 816.465 439.076C822 429.977 815.72 421.081 809.611 415.59C794.985 402.445 779.274 392.877 762.233 383.73C704.702 352.847 639.631 341.832 574.835 345.368C541.011 347.229 483.536 349.839 459.241 376.548C448.442 388.42 446.735 403.407 447.576 418.691C434.147 413.447 422.233 403.222 412.715 392.608C388.403 365.495 391.746 328.194 415.534 301.953C431.922 283.413 454.578 271.603 476.777 261.496C520.079 241.782 562.272 233.188 609.479 229.87Z"/><path d="M555.11 402.585C608.359 402.253 685.093 417.906 735.037 436.637C715.685 440.102 695.162 445.403 675.786 449.495C637.677 457.769 599.322 464.866 560.776 470.775C518.359 477.796 473.794 482.805 430.848 486.018C424.034 486.26 402.824 488.267 398.435 482.927C391.17 472.348 412.472 455.009 419.002 449.889C433.333 438.653 447.978 428.775 464.215 420.731C468.772 418.473 474.4 417.074 479.158 415.34C503.914 406.318 528.895 403.162 555.11 402.585Z"/><path d="M467.664 488.478C471.092 488.518 472.552 489.141 475.505 490.775C499.438 504.016 519.528 521.255 532.952 545.256C530.795 543.214 528.668 541.591 526.347 539.756C504.302 525.871 487.579 523.721 463.071 533.398C461.403 516.178 462.939 505.046 467.664 488.478Z"/><defs><linearGradient id="gradient_0" gradientUnits="userSpaceOnUse" x1="661.88806" y1="34.556755" x2="535.91241" y2="403.83728"><stop offset="0" stop-color="#F71F30"/><stop offset="1" stop-color="#F86C34"/></linearGradient></defs><path id="flame-main" fill="url(#gradient_0)" d="M561.548 92.7782C561.607 103.408 561.685 113.468 565.599 123.739C569.063 134.062 580.278 145.172 591.948 139.838C606.354 133.252 595.841 111.897 594.772 101.441C593.959 92.6999 595.091 83.8869 598.088 75.6353C605.901 54.1753 625.402 38.4236 645.55 29.0101C638.329 55.6449 639.926 88.0955 664.078 104.714C682.592 117.453 695.533 121.436 695.445 148.14C695.428 153.247 693.82 166.142 700.211 168.132C708.867 170.827 718.847 168.242 721.478 158.615C726.568 141.179 722.483 125.027 714.774 109.057C735.029 120.773 753.528 133.984 758.809 158.591C760.224 164.847 759.285 171.577 762.113 177.437C764.826 183.059 774.298 185.216 779.12 181.745C787.254 175.89 778.697 159.044 777.648 150.798C773.726 119.974 785.579 98.8951 811.646 83.1484C810.413 120.925 822.605 162.804 858.942 180.451C870.785 186.202 876.164 201.188 875.491 213.655C875.288 217.407 875.708 223.61 876.536 227.344C884.472 247.151 905.604 240.839 913.59 225.739C925.432 203.347 922.559 185.176 916.736 162.625C921.147 165.3 925.522 167.824 929.589 171.009C926.721 171.161 925.974 170.929 923.912 172.652L923.455 173.658C924.069 174.927 924.188 175.401 926.047 176.093C926.923 182.63 927.553 188.855 927.377 195.474C926.883 213.962 918.025 242.429 896.217 244.928C889.683 245.639 883.132 243.747 877.983 239.662C865.785 229.864 872.729 213.005 868.012 199.723C863.187 186.138 852.579 184.613 842.256 176.737C817.644 157.559 806.242 123.556 806.332 93.1162C792.688 104.251 784.675 115.211 782.937 133.299C782.35 139.872 782.656 146.494 783.847 152.985C785.76 163.231 793.463 176.609 783.348 185.429C776.118 191.732 763.716 189.237 758.221 181.82C754.968 177.421 754.93 172.372 754.454 167.156C752.687 146.443 741.976 134.429 726.012 122.481C730.595 137.927 730.964 150.189 724.36 165.065C717.957 179.487 690.469 177.01 689.892 163.015C689.128 144.458 693.335 131.053 675.148 118.378C670.856 115.386 665.313 112.337 660.923 109.314C648.018 99.8579 639.873 85.7296 637.076 70.0796C635.297 60.1304 636.117 49.049 637.662 39.1903C621.277 49.3709 605.994 64.5208 601.591 83.9355C600.218 90.135 599.981 96.5322 600.892 102.816C602.22 112.007 605.875 119.287 605.121 128.855C604.124 141.5 592.594 149.123 580.496 145.965C561.026 140.883 557.094 118.18 556.01 101.117C530.348 112.83 533.781 122.008 536.769 145.63C538.634 160.376 527.61 173.722 512.376 167.819C498.416 162.414 488.107 143.896 482.042 131.015C474.812 114.954 473.908 99.1907 474.206 81.9715C458.684 96.0185 440.773 114.294 439.097 136.253C438.274 147.032 444.039 154.089 447.37 163.386C455.826 187.408 439.672 209.39 420.86 222.774C412.399 229.003 403.626 236.797 392.449 236.377C384.035 236.06 377.173 230.756 376.084 222.232C373.416 201.33 370.008 179.994 346.222 173.23C348.273 185.97 347.937 192.966 347.902 205.673C347.819 235.887 321.995 237.321 313.561 264.773C307.431 284.723 320.506 303.917 306.96 319.354C301.466 324.684 290.343 322.926 284.576 318.266C270.74 307.087 268.402 291.024 269.981 274.344C261.882 282.698 257.94 288.168 253.858 299.326L248.997 296.568L249.353 295.665C255.593 279.929 263.303 269.373 279.053 262.576C274.974 273.539 273.958 283.245 276.571 295.117C278.641 304.522 289.098 320.385 300.376 317.025C311.104 313.829 306.358 291.466 305.948 282.552C305.769 277.769 306.07 272.98 306.847 268.256C308.519 258.589 316.098 245.375 323.559 238.474C331.109 231.362 338.853 225.56 340.766 214.627C343.749 197.585 343.004 182.665 337.547 166.358C339.878 166.483 342.201 166.73 344.506 167.099C368.28 170.863 379.57 193.316 380.83 215.397C381.825 241.242 403.875 229.108 416.025 219.64C438.322 202.266 452.959 183.742 437.77 155.348C420.437 122.95 457.685 87.4232 481.393 69.1265C477.335 93.0041 480.021 119.684 493.177 140.409C498.049 149.054 511.806 168.222 524.033 162.779C538.305 156.425 524.57 126.45 531.108 114.503C538.024 101.863 549.895 97.2146 561.548 92.7782Z"/><path fill="#FBFBFB" d="M424.089 965.024C433.461 964.731 463.918 964.091 471.723 966.206C476.251 967.406 480.419 969.69 483.866 972.862C496.73 984.862 495.836 1005.72 483.649 1018.09C499.743 1029.07 501.413 1047.56 492.092 1063.67C480.252 1079.36 466.134 1077.73 448.711 1077.67L423.993 1077.56C423.806 1063.09 424.185 1047.42 424.164 1032.79C424.015 1010.2 423.99 987.611 424.089 965.024Z"/><path d="M429.352 970.493C441.658 970.183 456.872 969.276 468.824 971.056C484.09 973.33 490.278 990.603 486.487 1004.08C484.125 1012.47 478.184 1015.7 471.024 1019.47C489.433 1024.17 496.058 1037.12 490.684 1055.27C482.319 1073.38 467.876 1072.39 451.133 1072.33L429.434 1072.22C428.972 1038.64 429.363 1004.13 429.352 970.493Z"/><path fill="#FBFBFB" d="M439.535 1024.95C454.228 1024.75 480.382 1020.54 481.924 1041.05C482.47 1048.3 481.859 1051.35 477.315 1056.94C468.469 1063.91 451.4 1061.79 439.558 1061.68C439.476 1049.44 439.468 1037.19 439.535 1024.95Z"/><path d="M444.866 1030.03C455.84 1029.83 474.361 1026.7 476.694 1040.87C477.512 1045.85 476.785 1048.79 474.188 1052.98C467.32 1058.21 453.964 1056.46 445.001 1056.29L444.866 1030.03Z"/><path fill="#FBFBFB" d="M439.495 980.933C446.621 980.805 453.65 980.745 460.772 980.779C477.263 980.856 481.86 997.616 473.194 1009.9C465.541 1016.71 450.08 1014.74 439.537 1014.65L439.495 980.933Z"/><path d="M444.783 986.389C453.957 986.386 469.97 982.825 471.78 995.075C472.517 1000.06 471.667 1002.59 468.822 1006.58C462.578 1011.16 452.819 1009.78 444.874 1009.6C444.932 1001.91 444.826 994.097 444.783 986.389Z"/><path fill="#EF70CD" d="M659.294 1126.03C681.285 1125.98 712.03 1122.03 728.845 1138.67C746.298 1155.94 745.388 1184.77 728.627 1202.39C711.43 1219.57 681.677 1215.51 659.252 1215.42C658.953 1206.35 659.29 1195.13 659.292 1185.88L659.294 1126.03Z"/><path d="M665.2 1131.75C684.032 1131.49 710.242 1128.25 724.616 1142.67C739.974 1158.09 738.639 1182.84 724.303 1198.38C706.729 1213.55 688.066 1209.96 665.17 1209.83L665.2 1131.75Z"/><path fill="#FBFBFB" d="M1066.34 965.025C1072.97 964.769 1080.94 964.822 1087.6 964.867C1100.9 964.993 1114.39 963.114 1125.07 973.042C1140.06 986.985 1140.32 1016.31 1126.12 1030.92C1118.34 1038.91 1109.39 1040.26 1098.78 1040.24L1086.8 1040.33C1086.63 1052.62 1086.75 1065.19 1086.68 1077.52C1079.9 1077.62 1073.12 1077.61 1066.34 1077.48C1065.78 1041.43 1065.69 1000.94 1066.34 965.025Z"/><path d="M1071.62 970.479L1089.27 970.156C1100.22 970.016 1113.93 968.97 1122.21 977.649C1134.22 990.24 1134.02 1015.66 1121.62 1027.97C1114.02 1035.52 1103.88 1034.84 1094.02 1034.78L1081.34 1034.81L1081.33 1072.26L1071.63 1072.19L1071.62 970.479Z"/><path fill="#FBFBFB" d="M1081.35 980.909C1090.31 980.849 1106.58 979.304 1113.3 984.108C1124.54 992.14 1122.67 1009.61 1115.54 1019.31C1106.85 1026.38 1092.91 1024.38 1081.39 1024.24L1081.35 980.909Z"/><path d="M1086.76 986.438C1092.75 986.295 1105.07 985.119 1110 988.467C1117.88 993.82 1117.13 1007.64 1112.17 1014.97C1105.8 1020.57 1095.52 1018.9 1086.75 1018.76L1086.76 986.438Z"/><path fill="#FBFBFB" d="M266.411 965.019C273.328 964.831 280.507 964.95 287.445 964.971C287.917 977.149 287.602 991.383 287.615 1003.69L287.641 1076.85C285.292 1078.25 270.179 1077.65 266.469 1077.63L266.418 1033.13C253.956 1033.01 241.494 1033.02 229.032 1033.14L228.965 1077.52C222.087 1077.59 215.209 1077.6 208.331 1077.53C208.233 1072.47 208.252 1067.28 208.298 1062.21C208.594 1029.85 207.764 997.323 208.35 964.979C215.111 964.849 222.246 964.955 229.037 964.95L228.986 1011.79L266.416 1011.74L266.411 965.019Z"/><path d="M213.575 970.395L223.704 970.33C223.862 985.91 223.888 1001.49 223.779 1017.07L271.948 1017.06C272.154 1001.66 271.968 985.833 271.964 970.394L282.283 970.388L282.276 1071.42L281.834 1071.89C279.67 1072.55 274.586 1072.24 272.086 1072.2C271.936 1057.38 271.908 1042.55 272.003 1027.72C255.999 1027.62 239.994 1027.67 223.991 1027.86C223.354 1041.4 223.749 1058.42 223.67 1072.25L213.585 1072.22L213.575 970.395Z"/><path fill="#FBFBFB" d="M610.569 964.824L629.573 964.894L652.816 1033.84C657.165 1046.57 664.027 1064.89 667.376 1077.52L646.03 1077.61L638.061 1052.91L629.999 1052.87C620.726 1052.66 611.01 1052.89 601.701 1052.99C598.855 1061.18 596.065 1069.4 593.332 1077.63C586.408 1077.7 579.232 1077.55 572.286 1077.48C575.505 1065.6 581.612 1049.34 585.654 1037.37C593.718 1013.11 602.023 988.922 610.569 964.824Z"/><path d="M613.905 970.395L625.838 970.265C637.132 1004.31 648.605 1038.29 660.258 1072.2L649.863 1072.23C647.216 1063.92 644.493 1055.63 641.693 1047.37C636.974 1047.14 631.575 1047.26 626.801 1047.26C617.221 1047.18 607.641 1047.19 598.061 1047.3C595.312 1055.62 592.495 1063.93 589.61 1072.21L579.375 1072.18L613.905 970.395Z"/><path fill="#FBFBFB" d="M619.746 980.706C622 984.679 625.851 998.419 627.378 1003.27C630.898 1014.45 634.609 1025.87 637.816 1037.12L621.03 1037.17L601.788 1037.13C606.266 1021 614.262 996.671 619.746 980.706Z"/><path d="M619.796 997.262C621.965 1001.63 628.793 1025.64 630.561 1031.53L620.845 1031.68L608.686 1031.62C612.606 1020.24 616.311 1008.78 619.796 997.262Z"/><path fill="#FBFBFB" d="M1002.73 964.887L1021.91 964.925C1034.51 1001.16 1047.15 1040.82 1058.88 1077.52C1051.96 1077.69 1044.67 1077.59 1037.72 1077.59L1029.58 1052.74L1020.56 1052.79L994.801 1052.94L986.553 1077.6C979.512 1077.66 972.471 1077.61 965.432 1077.46C966.627 1073.12 967.981 1068.73 969.517 1064.5C981.419 1031.76 990.958 997.63 1002.73 964.887Z"/><path d="M1006.52 970.425L1018.17 970.262L1051.65 1072.23L1041.54 1072.25L1033.6 1047.35C1028.61 1047.04 1022.53 1047.21 1017.46 1047.23C1008.64 1047.15 999.816 1047.18 990.997 1047.3L982.672 1072.23L972.561 1072.21L1006.52 970.425Z"/><path fill="#FBFBFB" d="M1012.13 981.837C1014.44 984.072 1028.1 1030.76 1029.92 1037.13C1024.3 1037.2 1018.5 1037.12 1012.86 1037.11L994.772 1037.13C999.969 1019.13 1006.21 999.63 1012.13 981.837Z"/><path d="M1012.25 998.438C1013.9 1001.18 1021.27 1026.91 1022.67 1031.66L1012.62 1031.73L1001.85 1031.7L1012.25 998.438Z"/><path fill="#EF70CD" d="M570.02 696.892C580.794 696.177 589.554 703.829 597.289 710.318C605.136 716.899 613.543 722.501 623.614 725.034C626.878 725.855 629.849 725.743 632.904 727.29L633.29 728.629C631.757 731.427 628.616 730.868 626.772 732.824C624.843 734.87 622.588 737.151 620.698 739.235C607.548 753.734 595.646 763.42 576.85 768.612C552.513 772.019 529.757 764.417 531.466 735.291C529.068 734.345 525.041 732.824 523.288 731.15C516.434 724.605 523.453 712.748 528.704 707.454C532.735 703.39 537.589 699.761 543.454 699.818C549.222 699.873 551.933 702.644 555.604 706.457C560.621 700.151 562.169 698.734 570.02 696.892Z"/><path d="M570.863 703.069C583.11 703.388 591.377 714.081 601.078 720.533C607.907 725.075 612.359 727.352 619.901 730.49L563.084 730.972C556.393 730.88 532.334 732.603 528.355 728.746C526.975 727.408 526.525 725.524 526.684 723.665C527.134 718.4 531.576 713.04 535.437 709.767C537.923 707.66 541.71 705.156 545.167 705.909C550.388 707.047 553.976 713.808 556.698 717.838C560.596 710.266 562.152 705.495 570.863 703.069Z"/><path d="M614.671 733.824L616.664 733.723L616.676 734.349C606.519 745.903 594.056 757.512 578.886 761.804C567.66 765.055 555.597 763.644 545.425 757.889C544.572 757.176 543.738 756.44 542.925 755.682C537.052 750.156 537.428 743.472 537.219 736.083C565.67 737.065 586.414 736.099 614.671 733.824Z"/><path fill="#FBFBFB" d="M307.411 964.92C328.736 964.688 350.42 964.89 371.762 964.92L371.83 986.345C357.234 986.295 342.638 986.323 328.043 986.43C328.208 994.82 328.04 1003.64 328.001 1012.06L365.908 1012.06C366.115 1018.97 365.999 1026.57 366.024 1033.53L328.181 1033.6L328.143 1040.99L328.104 1056.29C342.982 1056.19 357.859 1056.24 372.736 1056.45L372.6 1077.54C351.359 1077.92 328.694 1077.69 307.421 1077.56L307.411 964.92Z"/><path d="M312.721 970.447C330.752 970.278 348.785 970.265 366.817 970.41L366.807 980.884L322.716 980.981L322.689 1017.24C333.906 1017.8 349.352 1017.45 360.728 1017.47L360.855 1028.1L322.711 1028.14L322.653 1035.32L322.659 1061.67L367.718 1061.73L367.635 1072.25L312.766 1072.24L312.721 970.447Z"/><path fill="#FBFBFB" d="M814.593 964.911C822.551 964.833 830.511 964.858 838.468 964.986C834.729 971.338 828.561 979.728 824.233 986.009L799.961 1021.66C810.015 1033.49 819.921 1045.73 829.935 1057.67C835.362 1064.42 840.717 1070.61 846.034 1077.56L819.565 1077.59L789.296 1040.18L789.153 1077.52C782.363 1077.64 775.572 1077.63 768.783 1077.49C768.589 1040.71 768.141 1001.63 768.726 965.038C775.522 964.952 782.319 964.941 789.116 965.004L789.322 1002.73C797.614 990.038 806.038 977.43 814.593 964.911Z"/><path d="M773.838 970.395L783.879 970.387C783.93 987.041 783.891 1003.7 783.763 1020.35C794.724 1003.56 805.923 986.93 817.357 970.461L828.45 970.455C817.14 987.657 804.528 1004.48 793.317 1021.84L818.483 1052.22C824.148 1058.77 829.684 1065.43 835.086 1072.2L822.275 1072.27C809.557 1056.43 796.729 1040.68 783.791 1025.02C783.943 1040.76 783.947 1056.51 783.804 1072.25L773.93 1072.23C773.414 1038.67 773.832 1004.01 773.838 970.395Z"/><path fill="#EF70CD" d="M450.84 543.244C456.487 544.512 460.054 562.338 469.088 563.136C489.211 564.914 514.415 556.128 529.069 575.299C529.371 577.555 529.563 576.522 528.488 578.511C524.993 580.088 520.647 574.291 516.839 572.487C511.192 568.722 484.219 566.924 478.108 569.732C465.008 575.749 466.726 578.837 447.586 574.599C454.613 584.535 458.041 587.491 470.341 591.196C473.439 592.129 474.558 591.479 476.649 593.579C476.437 596.396 473.438 602.888 472.457 605.987C466.685 624.087 463.202 649.148 471.902 667.092C480.812 685.467 491.219 704.281 499.728 723.044C502.179 728.447 506.525 733.823 509.156 739.587C517.149 757.098 522.733 775.524 530.475 793.109C536.128 805.713 545.617 815.029 558.839 819.393C581.752 826.957 614.748 820.17 635.515 809.689C669.653 792.46 698.699 766.93 720.493 735.591C724.893 729.263 729.841 724.853 733.424 717.54C740.541 703.014 745.395 688.262 750.097 672.833C750.827 670.438 751.186 670.186 752.887 669.346C755.175 669.638 754.169 669.224 756.004 670.662C757.294 674.194 748.4 697.776 746.712 702.473C744.602 707.868 739.064 720.549 735.953 725.027C718.747 749.799 698.516 774.436 674.445 792.323C640.715 817.388 607.149 832.955 564.612 827.236C568.242 844.628 572.522 858.248 582.338 873.32C585.111 877.579 597.327 888.942 597.546 890.743C596.507 892.852 597.263 892.131 595.436 893.2C594.114 892.854 593.699 892.723 592.544 891.867C571.082 875.972 563.253 849.977 558.323 825.512C520.133 812.749 519.964 773.016 503.807 742.108C497.457 730.323 490.628 719.033 485.299 706.677C480.047 694.5 472.773 683.065 467.164 671.153C456.284 648.045 460.921 620.183 469.342 597.023C466.902 596.32 464.501 595.49 462.149 594.535C451.599 590.249 443.933 581.32 439.182 570.939C438.41 569.253 438.577 568.567 439.178 567.24C442.662 565.69 450.016 570.844 454.966 571.096C461.09 571.408 462.27 571.102 468.166 569.874C466.803 569.11 465.458 568.313 464.134 567.485C458.048 563.627 450.596 554.991 449.353 547.681C448.969 545.425 449.659 545.084 450.84 543.244Z"/><path fill="#FBFBFB" d="M715.675 964.01C733.932 962.087 748.791 971.783 758.882 986.266C754.129 990.999 748.793 995.553 743.749 1000.01C731.964 984.268 714.129 978.48 699.121 993.786C679.124 1014.18 687.193 1060.56 721.893 1057.27C731.784 1056.34 737.32 1051.59 743.373 1044.42L744.304 1044.28C749.22 1048.41 754.114 1052.57 758.987 1056.75L758.431 1057.5C742.024 1079.5 713.367 1086.89 690.702 1069.66C678.423 1060.24 670.426 1046.3 668.501 1030.95C664.386 999.282 682.213 967.854 715.675 964.01Z"/><path d="M712.686 969.427C730.621 968.256 739.887 972.294 752.06 985.351L744.63 992.314C742.429 990.093 740.344 987.985 737.859 986.115C722.405 974.467 700.51 979.91 690.476 996.036C672.062 1025.63 688.66 1070.24 728.777 1061.35C736.041 1058.79 739.127 1056.2 744.734 1051.12C747.25 1053.28 749.767 1055.61 752.237 1057.84C745.171 1064.71 739.202 1069.7 729.388 1072.29C718.652 1075.1 707.24 1073.51 697.678 1067.88C667.769 1050.27 665.698 1003.38 690.401 980.537C696.93 974.501 704.171 971.465 712.686 969.427Z"/><path fill="#FBFBFB" d="M923.715 963.994C942.308 961.991 957.089 971.505 967.693 986.029C963.186 990.509 957.044 995.889 952.226 999.928C940.131 983.269 921.091 978.423 906.145 995.549C894.025 1009.68 893.787 1039.8 909.333 1051.44C923.576 1062.1 941.264 1058.37 951.628 1044.58L952.124 1044.25C954.199 1044.43 964.928 1054.64 967.43 1056.92L966.846 1057.71C958.825 1068.58 947.571 1076.55 934.008 1078.45C921.528 1080.28 908.84 1076.98 898.829 1069.31C861.096 1040.23 873.99 969.704 923.715 963.994Z"/><path d="M922.402 969.409C924.997 969.175 927.605 969.117 930.208 969.235C943.699 969.839 951.906 976.082 960.621 985.484L953.176 992.322C944.615 982.403 932.704 977.451 919.633 980.841C896.466 986.849 887.762 1014.45 893.626 1035.64C899.561 1057.09 917.553 1066.86 939.04 1060.79C945.874 1057.68 947.654 1056.47 953.178 1051.37C955.641 1053.39 958.265 1055.73 960.699 1057.81C953.706 1064.41 944.978 1071.48 935.069 1072.86C872.212 1081.61 862.729 980.116 922.402 969.409Z"/><path fill="#FBFBFB" d="M118.496 965.011C142.881 964.18 172.955 964.758 197.633 965.01C197.809 971.989 197.678 979.28 197.656 986.284L168.765 986.427C168.171 1006.43 168.662 1029.12 168.665 1049.34C168.726 1058.74 168.701 1068.14 168.59 1077.55C161.895 1077.7 154.851 1077.57 148.125 1077.55C147.537 1047.88 148.042 1016.2 148.052 986.382C138.412 986.159 128.168 986.362 118.482 986.4C118.364 979.271 118.369 972.14 118.496 965.011Z"/><path d="M123.664 970.476C145.56 969.743 170.343 970.249 192.394 970.344L192.397 980.911L163.408 980.906C163.271 1001.6 163.267 1022.29 163.398 1042.98L163.377 1072.21L153.48 1072.23L153.459 980.898L123.647 980.88L123.664 970.476Z"/><path fill="#F63231" d="M392.394 262.137L393.238 261.709C400.472 257.988 411.073 250.177 418.471 245.537C433.174 236.258 448.425 227.88 464.143 220.449C553.213 179.132 654.43 172.266 748.264 201.178C786.015 212.888 818.779 228.388 851.466 250.602C858.761 255.56 867.687 260.839 874.577 266.035C884.906 273.826 895.369 283.326 904.675 292.3C902.476 294.382 902.284 294.534 900.79 297.114C889.477 286.053 875.168 274.156 862.488 264.717C857.538 261.415 852.091 258.747 847.171 255.404C719.856 168.884 547.128 168.133 418.649 252.695C409.934 258.431 402.094 262.343 393.577 268.74C393.385 266.453 393.395 264.166 392.394 262.137Z"/><path fill="#FBFBFB" d="M512.453 964.998L532.798 964.902L532.793 1056.31C545.692 1056.19 558.592 1056.26 571.489 1056.5C571.858 1062.96 571.771 1070.88 571.95 1077.51C552.681 1077.99 531.842 1077.58 512.453 1077.56L512.453 964.998Z"/><path d="M517.523 970.443L527.769 970.363L527.825 1061.67L566.504 1061.74L566.501 1072.23L517.52 1072.26L517.523 970.443Z"/><path fill="#EF70CD" d="M868.36 658.468C868.985 658.668 870.326 659.141 870.691 659.676C882.886 675.912 890.432 710.451 875.304 727.761C860.859 744.289 818.524 761.797 818.888 789.016C819.156 809.063 852.717 817.402 868.22 808.793C875.192 804.921 875.001 804.406 879.748 798.16C881.901 797.365 880.81 797.459 883.147 798.006C888.421 803.952 872.905 823.985 868.557 828.628C849.635 848.837 824.825 852.655 798.467 854.04C811.54 875.749 819.884 883.704 841.561 897.209C844.964 899.33 855.726 904.977 857.999 907.077C859.015 909.618 859.189 908.603 858.516 910.511C857.976 910.716 856.964 911.017 856.417 910.839C837.495 904.699 815.459 887.474 803.419 872.088C801.398 869.418 799.464 866.683 797.622 863.886C781.462 839.446 770.04 811.393 768.867 781.883C768.683 777.248 766.602 765.025 770.85 762.521L772.413 762.968C774.67 765.75 774.283 771.802 774.352 775.534C774.848 802.344 781.812 823.914 794.551 847.661C830.73 847.389 850.95 842.701 872.863 813.128C861.303 818.83 847.941 819.672 835.756 815.466C826.765 812.388 819.586 806.324 815.332 797.639C803.752 772.053 837.977 749.069 855.383 736.045C866.333 727.852 869.464 729.745 875.045 714.798C882.529 694.757 874.593 680.348 866.195 662.312C866.419 660.205 866.754 660.461 868.36 658.468Z"/><path fill="#EF70CD" d="M457.21 1126.04L464.357 1126L487.969 1178.94C492.802 1189.72 497.795 1200.7 502.319 1211.62C503.066 1213.43 503.141 1214.03 502.484 1215.47C495.604 1216.41 489.501 1196.92 486.845 1190.85L465.368 1190.86L434.48 1190.81C431.734 1197.4 428.963 1204.18 426.009 1210.68C424.672 1213.62 423.515 1215.91 420.154 1216.17L419.217 1215.22C418.741 1213.54 418.591 1211.9 419.374 1210.29C422.793 1203.28 426.111 1196.1 429.243 1188.96C438.45 1167.94 447.772 1146.96 457.21 1126.04Z"/><path d="M460.435 1131.83C463.411 1134.95 481.38 1178.1 484.579 1185.53C477.141 1185.83 469.665 1185.77 462.219 1185.78C453.814 1185.91 445.197 1185.81 436.775 1185.8L460.435 1131.83Z"/><path fill="#F76D35" d="M929.589 171.009C944.208 183.329 953.935 198.586 955.648 217.956C956.484 228.332 955.275 238.771 952.087 248.681C949.88 255.572 945.64 262.491 943.085 269.288C937.811 283.315 938.41 300.935 950.849 311.13C952.444 312.438 954.459 314.253 956.685 313.979C958.663 313.734 960.669 311.863 961.653 310.216C964.354 305.69 965.848 299.186 967.6 294.153C974.055 275.609 981.34 261.608 1001.45 256.613C1003.99 255.987 1006.55 255.429 1009.12 254.94C1000.18 281.362 997.878 310.548 1010.72 336.583C1022.79 361.051 1037.17 356.198 1026.47 390.765C1021.58 406.562 1013.05 411.764 1018.92 427.645L1013.96 430.055C1004.98 414.126 1018.54 400.574 1022.8 383.405C1028.71 359.549 1017.28 360.941 1007.11 341.746C993.05 315.188 993.391 289.72 1001.05 261.827C985.768 266.972 977.369 281.068 973.138 296.076C967.676 315.447 958.514 331.972 940.992 308.728C933.638 298.972 931.918 280.05 937.078 268.8C945.981 249.392 954.341 231.64 948.425 209.429C945.457 197.959 937.205 182.741 926.047 176.093C924.188 175.401 924.069 174.927 923.455 173.658L923.912 172.652C925.974 170.929 926.721 171.161 929.589 171.009Z"/><path fill="#EF70CD" d="M780.033 682.443L782.008 683.033C787.401 688.866 796.315 725.716 796.717 734.221C797.5 750.773 794.1 756.805 776.227 757.095C768.986 756.367 760.55 751.885 759.726 744.274C757.791 726.385 770.805 697.201 780.033 682.443Z"/><path d="M780.343 694.184C784.986 700.699 790.565 728.465 790.966 736.927C791.536 748.975 787.883 751.01 776.579 751.162C772.039 750.428 766.757 749.131 765.903 743.971C763.544 729.719 774.466 706.302 780.343 694.184Z"/><path fill="#EF70CD" d="M527.875 1126.04C530.364 1125.91 530.968 1125.81 533.365 1126.28C535.294 1128.22 543.92 1143.16 546.027 1146.69L575.086 1195.43C587.271 1173.04 601.466 1150.05 614.937 1128.33C616.428 1125.92 619.299 1125.49 621.802 1126.68C622.238 1130.11 621.994 1139.17 621.984 1143.1L621.954 1172.54C621.933 1181.16 621.959 1189.78 622.032 1198.4C622.081 1203.19 623.429 1212.57 619.887 1215.69C617.844 1216.2 618.758 1216.33 617.027 1215.52C614.538 1211.4 616.044 1152.69 616.095 1143.63L615.992 1136.22L590.544 1179.09C586.828 1185.4 580.493 1196.9 576.357 1202.5L573.913 1202.4C570.671 1200.26 538.054 1143.69 533.497 1136.01C533.676 1157.1 533.6 1191.55 533.55 1213.45C533.247 1213.92 532.945 1214.38 532.642 1214.85C530.27 1215.84 531.439 1215.73 529.031 1215.38C526.84 1213.06 527.953 1190.67 527.943 1185.91L527.875 1126.04Z"/><path fill="#EF70CD" d="M860.491 1126.08C861.216 1126.05 865.609 1125.87 866.041 1126.39C887.212 1151.84 907.105 1178.42 927.75 1204.3C927.818 1196.34 927.093 1130.25 928.094 1128.11C928.841 1126.5 929.605 1126.28 931.109 1125.62C932.925 1126.05 932.3 1125.53 933.247 1126.92C935.073 1142.68 932.852 1195.4 933.336 1214.57C932.957 1215.08 932.577 1215.58 932.197 1216.09C930.819 1215.85 929.474 1215.63 928.512 1214.54C921.794 1206.92 915.211 1197.85 908.969 1189.86L866.569 1135.73C866.65 1155.48 866.623 1175.23 866.488 1194.98C866.436 1200.68 868.641 1211.99 864.522 1215.28C862.727 1215.61 862.72 1215.78 861.051 1215.17C859.92 1213.01 860.473 1136.19 860.491 1126.08Z"/><path fill="#FAF106" d="M1068 363.919L1066.82 377.348C1066.61 393.95 1067.12 402.944 1070.34 419.432C1072.99 434.665 1084.26 447.56 1081.92 463.555C1079.7 478.667 1073.31 493.405 1064.95 506.066C1055.7 520.064 1051.23 528.35 1050.36 545.065C1047.97 544.866 1047.43 545.263 1045.24 546.152C1043.4 512.684 1072.59 497.682 1076.24 463.883C1078.12 446.501 1067.53 436.532 1064.29 418.53C1061.17 401.239 1061.16 393.69 1061.21 376.536C1043.12 394.077 1040.8 407.132 1040.36 430.624C1040.26 436.254 1034.49 444.885 1027.62 442.717C1020.62 440.508 1017.54 436.178 1013.96 430.055L1018.92 427.645C1021.39 431.715 1024.58 436.761 1029.75 437.218C1037.89 433.926 1034.02 415.667 1036.85 405.996C1040.02 395.184 1042.13 388.646 1050.23 380.097C1056.61 372.157 1059.97 369.915 1068 363.919Z"/><path fill="#F76D35" d="M1068 363.919L1066.82 377.348C1066.78 374.407 1067.31 374.249 1065.87 372.533C1060.65 372.013 1056.03 378.187 1050.23 380.097C1056.61 372.157 1059.97 369.915 1068 363.919Z"/><path fill="#EF70CD" d="M714.516 538.48C717.509 539.876 717.358 539.632 718.375 541.929C717.993 551.331 705.5 561.904 697.095 565.071C719.693 575.119 722.275 557.014 735.251 546.234C729.076 565.95 726.333 577.825 704.157 584.754C701.986 585.432 701.066 585.416 699.143 584.362C697.6 579.711 702.019 579.239 705.663 577.677C709.692 575.95 712.868 574.449 716.681 572.202L714.848 572.636C699.44 576.383 691.531 566.644 676.842 562.926C663 559.422 654.915 559.179 641.161 561.609C625.531 564.744 614.71 573.494 601.619 581.382C600.611 581.99 599.118 580.791 598.29 580.063C598.113 578.899 597.867 577.46 599.004 576.563C613.803 564.551 635.661 552.76 655.363 553.895C677.835 555.189 679.648 557.506 696.302 540.294C699.026 541.009 698.001 540.31 699.757 542.038C701.179 548.546 688.99 556.265 683.845 558.68C701.054 564.168 706.923 549.616 714.516 538.48Z"/><path fill="#974AB4" d="M204.281 739.159C208.739 795.966 273.506 783.27 288.859 828.708C294.532 845.499 302.032 861.275 314.998 873.747C318.324 876.947 326.141 882.918 328.458 885.993C327.761 888.028 328.337 887.179 326.574 888.562C321.734 889.21 316.065 883.057 312.777 879.889C298.448 866.085 288.401 847.955 282.979 828.898C282.008 825.485 280.534 821.761 278.326 818.953C267.973 806.425 251.391 799.528 237.373 792.533C220.462 784.096 206.44 770.827 200.849 752.483C199.392 747.702 196.655 735.731 199.028 731.222C206.852 729.861 227.713 753.439 234.623 736.119L239.792 736.628C235.644 756.534 215.42 745.912 204.281 739.159Z"/><path fill="#FAF106" d="M248.997 296.568L253.858 299.326C247.966 320.81 252.203 330.514 255.565 351.879C257.885 366.62 256.666 383.894 256.1 398.755C255.724 405.106 256.141 415.308 249.58 418.812C245.957 420.747 239.599 420.675 238.117 415.946C233.429 400.99 231.476 393.521 220.141 382.321C214.174 408.329 206.909 428.977 193.511 452.319L189.27 448.63C204.527 418.317 209.987 406.492 215.868 372.815C227.63 379.814 234.948 388.612 239.597 401.723C241.025 405.751 241.491 410.855 243.399 414.6C245.621 415.235 244.474 415.185 246.95 414.338C249.802 411.145 250.155 407.789 250.332 403.626C251.041 387.026 252.088 370.375 250.106 353.818C248.719 342.232 245.485 331.112 245.223 319.385C245.037 310.998 246.684 304.577 248.997 296.568Z"/><path fill="#EF70CD" d="M770.547 1126.05C779.332 1126.04 826.523 1124.62 829.57 1127.15C829.683 1129.86 830.042 1129.17 828.847 1131.18C827.172 1131.95 782.412 1131.62 776.725 1131.62C776.35 1142.94 776.597 1155.17 776.623 1166.56C782.985 1166.57 819.973 1165.77 822.78 1167.51C823.373 1169.44 823.313 1169.3 822.828 1171.28C822.462 1171.6 822.096 1171.91 821.73 1172.23C809.62 1172.23 789.314 1172.26 778.096 1172.42L777.241 1172.67C775.95 1175.08 776.597 1205.11 776.622 1209.87L812.222 1209.83C816.351 1209.8 826.92 1208.81 829.908 1210.92C831.1 1213.09 830.95 1212 830.709 1214.21C828.15 1216.3 778.385 1215.43 770.537 1215.41C769.939 1186.75 770.261 1154.8 770.547 1126.05Z"/><path fill="#EF70CD" d="M521.106 825.746C523.34 826.212 524.234 826.687 524.673 828.863C523.534 832.174 518.465 834.589 515.562 836.437C493.342 850.58 469.819 862.851 444.79 871.213C432.66 875.121 419.815 878.166 407.292 880.565C375.218 886.71 349.77 897.807 321.686 914.254C319.18 914.107 318.205 913.453 318.055 911.099C320.252 906.871 327.269 904.27 331.583 901.772C351.575 890.2 376.568 881.878 398.985 876.288C418.503 871.422 432.977 869.828 452.488 862.085C477.349 852.219 498.744 840.561 521.106 825.746Z"/><path fill="#2E64D2" d="M1040.59 669.377L1045.2 672.18C1043.79 678.256 1041.95 690.185 1048.77 693.439C1060.04 694.484 1064.44 676.717 1066.79 668.442C1072.54 686.853 1074.66 712.227 1065.49 729.963C1053.94 752.322 1036.74 763.715 1018.9 780.13C1009.74 788.554 1002.25 797.356 994.448 807.029L988.764 805.312C998.352 791.641 1010.22 779.818 1022.67 768.774C1030.28 762.029 1040.04 754.806 1046.5 747.127C1063.66 726.749 1067.45 715.418 1065.65 688.818C1048.28 711.501 1032.61 693.551 1040.59 669.377Z"/><path fill="#EF70CD" d="M365.24 1125.57C374.357 1124.63 384.262 1125.69 392.54 1129.75C395.567 1131.23 400.902 1134.19 402.017 1137.31C400.305 1140.12 400.015 1141.36 397.251 1139.52C387.888 1133.26 379.632 1130.15 367.974 1131.27C315.065 1136.35 321.438 1215.67 376.943 1210.01C388.746 1207.97 389.243 1205.52 398.821 1200.42C401 1201.8 401.499 1202.09 401.234 1204.53C398.953 1208.03 395.143 1209.74 391.476 1211.53C376.923 1218.64 358.338 1217.41 344.771 1208.23C334.968 1201.54 328.282 1191.17 326.229 1179.48C321.162 1151.88 338.298 1130.43 365.24 1125.57Z"/><path fill="#EF70CD" d="M781.969 640.436C791.732 638.907 800.923 645.475 802.638 655.207C804.353 664.939 797.962 674.253 788.265 676.154C781.825 677.417 775.205 675.102 770.955 670.101C766.705 665.101 765.488 658.194 767.772 652.042C770.056 645.89 775.486 641.451 781.969 640.436Z"/><path d="M782.391 646.396C788.998 645.107 795.399 649.414 796.696 656.018C797.993 662.623 793.696 669.03 787.092 670.336C780.477 671.644 774.055 667.337 772.756 660.72C771.457 654.102 775.773 647.686 782.391 646.396Z"/><path fill="#EF70CD" d="M672.688 474.731C680.536 473.918 688.46 475.146 695.693 478.296C702.717 481.294 726.302 496.73 722.16 505.252C720.962 505.51 720.02 505.478 719.135 504.46C709.778 493.704 699.64 484.124 685.003 481.323C663.368 477.182 643.545 492.964 626.694 504.56C618.289 510.21 610.261 517.005 602.301 523.184C598.419 526.197 589.16 535.012 585.453 536.553C583.432 536.141 583.586 536.096 582.166 534.551C581.926 533.351 581.595 533.107 582.214 532.408C584.45 529.887 588.018 526.999 590.63 524.816C609.693 508.886 630.734 492.871 652.521 480.91C658.277 477.75 666.289 475.665 672.688 474.731Z"/><path fill="#67D251" d="M1050.36 545.065L1051.17 546.493C1056.91 544.157 1059.73 519.033 1091.36 514.169C1087.18 525.747 1085.64 533.426 1086.27 545.927C1087.61 572.818 1103.91 593.447 1089.52 619.7L1084.85 616.949C1095.01 596.472 1087.41 583.319 1082.91 563.041C1079.64 548.302 1079.49 536.483 1082.76 521.875C1082.6 521.946 1082.45 522.017 1082.29 522.089L1081.52 522.458C1065.38 530.027 1058.03 547.214 1050.59 562.414C1047.58 556.245 1046.3 552.855 1045.24 546.152C1047.43 545.263 1047.97 544.866 1050.36 545.065Z"/><path fill="#F76D35" d="M904.675 292.3C946.933 333.852 969.534 368.659 995.17 421.122C993.662 422.425 992.038 423.778 990.571 425.113C969.11 377.096 938.631 333.643 900.79 297.114C902.284 294.534 902.476 294.382 904.675 292.3Z"/><path fill="#F76D35" d="M392.394 262.137C393.395 264.166 393.385 266.453 393.577 268.74C352.491 301.124 323.683 332.188 295.83 376.777L291.783 372.826C312.857 338.41 338.999 307.369 369.329 280.75C375.79 275.046 385.272 266.883 392.394 262.137Z"/><path fill="#FAF106" d="M291.783 372.826L295.83 376.777C267.325 425.792 253.692 459.51 243.283 515.956C241.746 515.258 239.874 514.611 238.266 514.008C246.436 463.829 264.637 415.812 291.783 372.826Z"/><path fill="#EF70CD" d="M634.302 578.531L635.383 578.703C637.557 580.446 638.784 594.847 647.689 596.8C662.059 599.951 665.233 593.106 669.515 581.686C675.669 584.613 696.203 593.366 690.583 602.493C685.997 604.207 684.568 596.406 679.945 593.377C677.107 591.517 676.316 591.443 673.126 590.405C672.207 592.305 670.866 594.566 669.822 596.45C671.987 599.966 677.846 608.663 673.176 611.535C670.607 611.565 671.637 611.987 669.845 610.624C668.723 607.115 667.259 603.503 665.937 600.047C659.135 603.052 656.661 603.504 649.408 603.566C649.542 607.245 650.676 617.097 646.613 618.49C642.422 615.625 643.301 605.906 643.387 601.218C636.417 596.493 635.227 594.14 631.789 586.746C627.764 588.902 624.436 591.23 621.204 594.532C618.587 597.205 617.725 601.583 614.516 603.027C612.499 602.568 612.648 602.525 611.174 601.022C609.155 592.305 628.018 581.739 634.302 578.531Z"/><path fill="#2E64D2" d="M1010.05 676.127L1015.44 677.3C1003.16 723.285 982.624 766.656 954.837 805.299L949.22 802.489C963.648 781.994 975.556 762.396 986.137 739.613C988.93 733.599 992.698 727.83 995.221 721.502C1001.12 706.707 1005.98 691.506 1010.05 676.127Z"/><path fill="#67D251" d="M189.27 448.63L193.511 452.319C185.567 468.925 179.089 489.606 186.057 507.551C195.816 532.683 220.094 557.116 215.275 586.217C213.184 584.89 212.471 584.525 210.199 583.534C213.243 557.391 187.756 530.863 180.011 507.681C173.347 487.736 179.988 466.629 189.27 448.63Z"/><path fill="#974AB4" d="M284.738 760.55C295.783 781.572 311.712 805.013 326.835 823.381C334.146 832.385 341.814 841.093 349.821 849.485C354.97 854.776 360.477 860.013 365.629 865.303C367.129 866.843 367.043 867.18 367.285 869.033C366.556 870.709 367.142 870.076 365.346 870.871C356.711 869.64 318.278 822.387 311.443 813.301C299.507 797.282 288.788 780.392 279.375 762.771C280.998 762.271 283.124 761.257 284.738 760.55Z"/><path fill="#974AB4" d="M988.764 805.312L994.448 807.029C988.964 814.617 981.981 825.505 979.156 834.409C972.952 853.959 976.485 860.888 959.915 875.638C956.05 879.043 951.894 882.102 947.496 884.782C942.644 887.755 915.188 901.674 910.843 901.398C908.875 899.699 909.507 900.697 908.659 898.441C912.097 895.718 915.711 893.954 919.627 892.202C935.128 885.269 950.168 878.703 961.734 865.778C970.639 855.828 969.133 845.239 973.441 833.469C977.35 822.792 982.344 814.506 988.764 805.312Z"/><path fill="#2E64D2" d="M174.571 626.939C174.493 624.067 174.066 616.588 174.928 614.274C174.984 631.391 175.33 638.705 182.155 654.595C193.085 680.043 240.953 707.918 239.792 736.628L234.623 736.119C234.193 724.355 219.38 705.167 211.091 697.528C187.928 676.18 171.013 658.304 169.52 625.342C171.43 625.743 172.74 626.289 174.571 626.939Z"/><path fill="#974AB4" d="M949.22 802.489L954.837 805.299C940.887 824.174 925.78 842.966 908.825 859.239C903.416 864.43 874.959 891.606 868.546 891.904C866.796 890.755 867.495 891.529 866.725 889.231C867.591 886.627 887.234 870.924 890.95 867.596C912.745 848.139 932.29 826.301 949.22 802.489Z"/><path fill="#FAF106" d="M990.571 425.113C992.038 423.778 993.662 422.425 995.17 421.122C1010.22 455.669 1023.46 503.615 1025.91 541.445C1025.48 544.708 1023.74 544.752 1020.79 545.872C1017.31 504.25 1007.1 463.468 990.571 425.113Z"/><path fill="#59DCF2" d="M160.643 559.616C174.956 559.365 186.813 566.909 195.434 578.288C199.261 583.34 204.769 596.559 210.199 583.534C212.471 584.525 213.184 584.89 215.275 586.217C208.323 600.8 199.259 594.767 192.721 584.208C187.29 575.437 180.825 570.828 171.763 566.476C182.292 584.287 175.756 594.551 174.928 614.274C174.066 616.588 174.493 624.067 174.571 626.939C172.74 626.289 171.43 625.743 169.52 625.342C167.795 591.825 181.221 588.123 160.643 559.616Z"/><path fill="#EF70CD" d="M657.936 519.476C665.163 518.619 701.47 521.288 703.294 529.547C703.01 530.179 701.77 532.096 701.102 531.9C675.445 524.351 657.426 521.563 631.821 532.497C627.031 534.983 622.472 537.891 618.197 541.185C614.305 544.211 604.761 554.661 601.821 554.893C599.143 552.583 601.535 547.98 603.52 545.935C618.736 530.264 636.083 521.343 657.936 519.476Z"/><path fill="#2E64D2" d="M244.573 649.54C252.91 692.222 263.467 722.568 284.738 760.55C283.124 761.257 280.998 762.271 279.375 762.771C257.55 722.565 247.721 695.186 239.163 650.317C240.913 650 242.799 649.78 244.573 649.54Z"/><path fill="#EF70CD" d="M493.49 575.527C498.386 577.331 496.667 586.877 502.94 591.263C511.233 597.061 523.948 586.067 529.162 590.117L529.351 591.791C526.542 597.564 512.124 599.386 506.41 598.988C504.882 605.606 505.133 608.807 505.331 615.521L505.167 616.435C503.614 618.054 504.522 617.583 502.397 617.99C494.7 613.731 502.576 599.465 499.596 594.554C495.645 593.743 490.965 606.086 486.151 607.484C481.118 602.338 490.005 592.92 493.824 589.144C491.593 583.602 488.298 579.488 493.49 575.527Z"/><path fill="#67D251" d="M238.266 514.008C239.874 514.611 241.746 515.258 243.283 515.956C239.066 546.007 237.51 565.632 238.782 596.048C237.1 595.834 234.926 595.354 233.215 595.024C231.759 567.915 233.454 540.727 238.266 514.008Z"/><path fill="#EF70CD" d="M821.524 578.258L823.551 578.771C826.593 581.34 827.32 589.037 827.784 593.1C830.118 613.538 822.003 632.336 809.535 648.092C807.366 647.114 806.747 646.439 805.834 644.551C806.55 642.042 809.697 637.397 811.243 634.923C818.066 624.002 820.455 617.767 822.06 604.773C823.128 596.122 820.197 588.921 819.942 580.483C820.556 579.619 821.083 578.878 821.524 578.258Z"/><path fill="#EF70CD" d="M588.878 643.711C590.724 643.743 591.891 643.862 593.072 645.389C597.722 651.425 601.379 661.88 600.631 669.498C599.307 682.986 580.435 675.994 572.444 674.357C569.359 673.724 566.446 676.592 564.235 678.345C563.018 678.175 562.902 677.922 561.727 677.295C561.057 676.115 560.339 675.378 561.125 673.772C567.243 661.267 587.487 675.163 592.297 671.421C599.34 665.941 589.158 652.237 587.951 646.304C588.325 645.258 588.634 644.393 588.878 643.711Z"/><path fill="#67D251" d="M1025.91 541.445C1028.61 561.93 1028.22 595.855 1025.93 616.337L1020.64 614.823C1022.19 586.446 1023.07 574.574 1020.79 545.872C1023.74 544.752 1025.48 544.708 1025.91 541.445Z"/><path fill="#59DCF2" d="M1084.85 616.949L1089.52 619.7C1078.67 638.867 1056.92 645.416 1045.2 672.18L1040.59 669.377C1052.46 641.388 1072.14 637.052 1084.85 616.949Z"/><path fill="#59DCF2" d="M1020.64 614.823L1025.93 616.337C1023.9 639.248 1020.91 655.141 1015.44 677.3L1010.05 676.127C1016.07 653.754 1018.11 637.82 1020.64 614.823Z"/><path fill="#59DCF2" d="M233.215 595.024C234.926 595.354 237.1 595.834 238.782 596.048C239.187 609.798 241.801 635.917 244.573 649.54C242.799 649.78 240.913 650 239.163 650.317C236.278 632.498 233.549 613.101 233.215 595.024Z"/>
<script type="text/javascript"><![CDATA[
(function() {
  var flamePath = document.getElementById('flame-main');
  if (!flamePath) return;

  var BASE      = [{"cmd": "M", "a": [561.548, 92.7782], "c1": null, "c2": null}, {"cmd": "C", "a": [565.599, 123.739], "c1": [561.607, 103.408], "c2": [561.685, 113.468]}, {"cmd": "C", "a": [591.948, 139.838], "c1": [569.063, 134.062], "c2": [580.278, 145.172]}, {"cmd": "C", "a": [594.772, 101.441], "c1": [606.354, 133.252], "c2": [595.841, 111.897]}, {"cmd": "C", "a": [598.088, 75.6353], "c1": [593.959, 92.6999], "c2": [595.091, 83.8869]}, {"cmd": "C", "a": [645.55, 29.0101], "c1": [605.901, 54.1753], "c2": [625.402, 38.4236]}, {"cmd": "C", "a": [664.078, 104.714], "c1": [638.329, 55.6449], "c2": [639.926, 88.0955]}, {"cmd": "C", "a": [695.445, 148.14], "c1": [682.592, 117.453], "c2": [695.533, 121.436]}, {"cmd": "C", "a": [700.211, 168.132], "c1": [695.428, 153.247], "c2": [693.82, 166.142]}, {"cmd": "C", "a": [721.478, 158.615], "c1": [708.867, 170.827], "c2": [718.847, 168.242]}, {"cmd": "C", "a": [714.774, 109.057], "c1": [726.568, 141.179], "c2": [722.483, 125.027]}, {"cmd": "C", "a": [758.809, 158.591], "c1": [735.029, 120.773], "c2": [753.528, 133.984]}, {"cmd": "C", "a": [762.113, 177.437], "c1": [760.224, 164.847], "c2": [759.285, 171.577]}, {"cmd": "C", "a": [779.12, 181.745], "c1": [764.826, 183.059], "c2": [774.298, 185.216]}, {"cmd": "C", "a": [777.648, 150.798], "c1": [787.254, 175.89], "c2": [778.697, 159.044]}, {"cmd": "C", "a": [811.646, 83.1484], "c1": [773.726, 119.974], "c2": [785.579, 98.8951]}, {"cmd": "C", "a": [858.942, 180.451], "c1": [810.413, 120.925], "c2": [822.605, 162.804]}, {"cmd": "C", "a": [875.491, 213.655], "c1": [870.785, 186.202], "c2": [876.164, 201.188]}, {"cmd": "C", "a": [876.536, 227.344], "c1": [875.288, 217.407], "c2": [875.708, 223.61]}, {"cmd": "C", "a": [913.59, 225.739], "c1": [884.472, 247.151], "c2": [905.604, 240.839]}, {"cmd": "C", "a": [916.736, 162.625], "c1": [925.432, 203.347], "c2": [922.559, 185.176]}, {"cmd": "C", "a": [929.589, 171.009], "c1": [921.147, 165.3], "c2": [925.522, 167.824]}, {"cmd": "C", "a": [923.912, 172.652], "c1": [926.721, 171.161], "c2": [925.974, 170.929]}, {"cmd": "L", "a": [923.455, 173.658], "c1": null, "c2": null}, {"cmd": "C", "a": [926.047, 176.093], "c1": [924.069, 174.927], "c2": [924.188, 175.401]}, {"cmd": "C", "a": [927.377, 195.474], "c1": [926.923, 182.63], "c2": [927.553, 188.855]}, {"cmd": "C", "a": [896.217, 244.928], "c1": [926.883, 213.962], "c2": [918.025, 242.429]}, {"cmd": "C", "a": [877.983, 239.662], "c1": [889.683, 245.639], "c2": [883.132, 243.747]}, {"cmd": "C", "a": [868.012, 199.723], "c1": [865.785, 229.864], "c2": [872.729, 213.005]}, {"cmd": "C", "a": [842.256, 176.737], "c1": [863.187, 186.138], "c2": [852.579, 184.613]}, {"cmd": "C", "a": [806.332, 93.1162], "c1": [817.644, 157.559], "c2": [806.242, 123.556]}, {"cmd": "C", "a": [782.937, 133.299], "c1": [792.688, 104.251], "c2": [784.675, 115.211]}, {"cmd": "C", "a": [783.847, 152.985], "c1": [782.35, 139.872], "c2": [782.656, 146.494]}, {"cmd": "C", "a": [783.348, 185.429], "c1": [785.76, 163.231], "c2": [793.463, 176.609]}, {"cmd": "C", "a": [758.221, 181.82], "c1": [776.118, 191.732], "c2": [763.716, 189.237]}, {"cmd": "C", "a": [754.454, 167.156], "c1": [754.968, 177.421], "c2": [754.93, 172.372]}, {"cmd": "C", "a": [726.012, 122.481], "c1": [752.687, 146.443], "c2": [741.976, 134.429]}, {"cmd": "C", "a": [724.36, 165.065], "c1": [730.595, 137.927], "c2": [730.964, 150.189]}, {"cmd": "C", "a": [689.892, 163.015], "c1": [717.957, 179.487], "c2": [690.469, 177.01]}, {"cmd": "C", "a": [675.148, 118.378], "c1": [689.128, 144.458], "c2": [693.335, 131.053]}, {"cmd": "C", "a": [660.923, 109.314], "c1": [670.856, 115.386], "c2": [665.313, 112.337]}, {"cmd": "C", "a": [637.076, 70.0796], "c1": [648.018, 99.8579], "c2": [639.873, 85.7296]}, {"cmd": "C", "a": [637.662, 39.1903], "c1": [635.297, 60.1304], "c2": [636.117, 49.049]}, {"cmd": "C", "a": [601.591, 83.9355], "c1": [621.277, 49.3709], "c2": [605.994, 64.5208]}, {"cmd": "C", "a": [600.892, 102.816], "c1": [600.218, 90.135], "c2": [599.981, 96.5322]}, {"cmd": "C", "a": [605.121, 128.855], "c1": [602.22, 112.007], "c2": [605.875, 119.287]}, {"cmd": "C", "a": [580.496, 145.965], "c1": [604.124, 141.5], "c2": [592.594, 149.123]}, {"cmd": "C", "a": [556.01, 101.117], "c1": [561.026, 140.883], "c2": [557.094, 118.18]}, {"cmd": "C", "a": [536.769, 145.63], "c1": [530.348, 112.83], "c2": [533.781, 122.008]}, {"cmd": "C", "a": [512.376, 167.819], "c1": [538.634, 160.376], "c2": [527.61, 173.722]}, {"cmd": "C", "a": [482.042, 131.015], "c1": [498.416, 162.414], "c2": [488.107, 143.896]}, {"cmd": "C", "a": [474.206, 81.9715], "c1": [474.812, 114.954], "c2": [473.908, 99.1907]}, {"cmd": "C", "a": [439.097, 136.253], "c1": [458.684, 96.0185], "c2": [440.773, 114.294]}, {"cmd": "C", "a": [447.37, 163.386], "c1": [438.274, 147.032], "c2": [444.039, 154.089]}, {"cmd": "C", "a": [420.86, 222.774], "c1": [455.826, 187.408], "c2": [439.672, 209.39]}, {"cmd": "C", "a": [392.449, 236.377], "c1": [412.399, 229.003], "c2": [403.626, 236.797]}, {"cmd": "C", "a": [376.084, 222.232], "c1": [384.035, 236.06], "c2": [377.173, 230.756]}, {"cmd": "C", "a": [346.222, 173.23], "c1": [373.416, 201.33], "c2": [370.008, 179.994]}, {"cmd": "C", "a": [347.902, 205.673], "c1": [348.273, 185.97], "c2": [347.937, 192.966]}, {"cmd": "C", "a": [313.561, 264.773], "c1": [347.819, 235.887], "c2": [321.995, 237.321]}, {"cmd": "C", "a": [306.96, 319.354], "c1": [307.431, 284.723], "c2": [320.506, 303.917]}, {"cmd": "C", "a": [284.576, 318.266], "c1": [301.466, 324.684], "c2": [290.343, 322.926]}, {"cmd": "C", "a": [269.981, 274.344], "c1": [270.74, 307.087], "c2": [268.402, 291.024]}, {"cmd": "C", "a": [253.858, 299.326], "c1": [261.882, 282.698], "c2": [257.94, 288.168]}, {"cmd": "L", "a": [248.997, 296.568], "c1": null, "c2": null}, {"cmd": "L", "a": [249.353, 295.665], "c1": null, "c2": null}, {"cmd": "C", "a": [279.053, 262.576], "c1": [255.593, 279.929], "c2": [263.303, 269.373]}, {"cmd": "C", "a": [276.571, 295.117], "c1": [274.974, 273.539], "c2": [273.958, 283.245]}, {"cmd": "C", "a": [300.376, 317.025], "c1": [278.641, 304.522], "c2": [289.098, 320.385]}, {"cmd": "C", "a": [305.948, 282.552], "c1": [311.104, 313.829], "c2": [306.358, 291.466]}, {"cmd": "C", "a": [306.847, 268.256], "c1": [305.769, 277.769], "c2": [306.07, 272.98]}, {"cmd": "C", "a": [323.559, 238.474], "c1": [308.519, 258.589], "c2": [316.098, 245.375]}, {"cmd": "C", "a": [340.766, 214.627], "c1": [331.109, 231.362], "c2": [338.853, 225.56]}, {"cmd": "C", "a": [337.547, 166.358], "c1": [343.749, 197.585], "c2": [343.004, 182.665]}, {"cmd": "C", "a": [344.506, 167.099], "c1": [339.878, 166.483], "c2": [342.201, 166.73]}, {"cmd": "C", "a": [380.83, 215.397], "c1": [368.28, 170.863], "c2": [379.57, 193.316]}, {"cmd": "C", "a": [416.025, 219.64], "c1": [381.825, 241.242], "c2": [403.875, 229.108]}, {"cmd": "C", "a": [437.77, 155.348], "c1": [438.322, 202.266], "c2": [452.959, 183.742]}, {"cmd": "C", "a": [481.393, 69.1265], "c1": [420.437, 122.95], "c2": [457.685, 87.4232]}, {"cmd": "C", "a": [493.177, 140.409], "c1": [477.335, 93.0041], "c2": [480.021, 119.684]}, {"cmd": "C", "a": [524.033, 162.779], "c1": [498.049, 149.054], "c2": [511.806, 168.222]}, {"cmd": "C", "a": [531.108, 114.503], "c1": [538.305, 156.425], "c2": [524.57, 126.45]}, {"cmd": "C", "a": [561.548, 92.7782], "c1": [538.024, 101.863], "c2": [549.895, 97.2146]}, {"cmd": "Z", "a": null, "c1": null, "c2": null}];
  var FLAMES    = [{"name": "A", "phase": 0.0}, {"name": "B", "phase": 1.1}, {"name": "C", "phase": 2.3}, {"name": "F", "phase": 3.0}, {"name": "E", "phase": 1.7}, {"name": "D", "phase": 3.5}, {"name": "G", "phase": 4.2}, {"name": "H", "phase": 5.0}];
  var NODE_SWAY = [{"E": -0.236}, {"E": -0.148}, {}, {"A": -0.34}, {"A": -0.5}, {"A": 1.3}, {"A": -0.46}, {"A": -0.3}, {"A": -0.06}, {"B": -0.5}, {"B": 1.3}, {"B": -0.412}, {"B": -0.148}, {"C": -0.34}, {"C": -0.5}, {"C": 1.3}, {"C": -0.46}, {"C": -0.3}, {"C": -0.06}, {"F": 1.0}, {"F": -0.5}, {"F": -0.39}, {"F": -0.28}, {"F": -0.17}, {"F": 1.3}, {"F": -0.06}, {"C": -0.1}, {"C": -0.18}, {"C": -0.26}, {"C": -0.42}, {"C": 1.0}, {"C": -0.38}, {"C": -0.22}, {"C": -0.14}, {"B": -0.06}, {"B": -0.324}, {"B": 1.0}, {"B": -0.236}, {"A": -0.1}, {"A": -0.18}, {"A": -0.26}, {"A": -0.42}, {"A": 1.0}, {"A": -0.38}, {"A": -0.22}, {"A": -0.14}, {"E": -0.5}, {"E": 1.3}, {"E": -0.412}, {"E": -0.324}, {"D": -0.5}, {"D": 1.0}, {"D": -0.4267}, {"D": -0.2067}, {"D": -0.06}, {}, {"G": -0.4511}, {"G": 1.0}, {"G": -0.4022}, {"G": -0.2556}, {"G": -0.06}, {"H": -0.5}, {"H": 1.0}, {"H": -0.06}, {"H": -0.17}, {"H": -0.28}, {"H": 1.3}, {"H": -0.39}, {"G": -0.1089}, {"G": -0.1578}, {"G": -0.2067}, {"G": -0.3044}, {"G": -0.3533}, {"G": 1.3}, {}, {"G": -0.5}, {"D": -0.1333}, {"D": -0.28}, {"D": 1.3}, {"D": -0.3533}, {}, {"E": 1.0}, {"E": -0.06}, {}];

  var TIP_AMP    = 18;
  var FREQ       = 0.52;
  var FVAR       = 0.06;
  var HANDLE_ROT = 0.38;

  function fmt(v) { return v.toFixed(3); }

  function rotate(cx, cy, px, py, theta) {
    var cos = Math.cos(theta), sin = Math.sin(theta);
    var rx = px - cx, ry = py - cy;
    return [cx + rx*cos - ry*sin, cy + rx*sin + ry*cos];
  }

  // Walk back from index i to find the nearest previous node with a valid .a
  function prevAnchor(i) {
    for (var j = i - 1; j >= 0; j--) {
      if (BASE[j].a) return { node: BASE[j], idx: j };
    }
    return { node: BASE[i], idx: i };
  }

  function buildPath(t) {
    // Compute sway oscillator values per flame
    var sv = {};
    FLAMES.forEach(function(fl, fi) {
      var f = FREQ + fi * FVAR;
      sv[fl.name] = 0.68 * Math.sin(f * t + fl.phase) +
                    0.32 * Math.sin(f * 1.618 * t + fl.phase + 0.9);
    });

    // Compute displacement [dx, dy, theta] for every node
    var disp = [];
    for (var i = 0; i < BASE.length; i++) {
      var ns = NODE_SWAY[i] || {};
      var dx = 0;
      for (var fn in ns) { dx += ns[fn] * sv[fn] * TIP_AMP; }
      var dy    = -Math.abs(dx) * 0.08;
      var theta = (dx / TIP_AMP) * HANDLE_ROT;
      disp.push([dx, dy, theta]);
    }

    var out = [];
    for (var i = 0; i < BASE.length; i++) {
      var n  = BASE[i];
      var d  = disp[i];

      // This node's displaced anchor
      var ax = n.a ? n.a[0] + d[0] : 0;
      var ay = n.a ? n.a[1] + d[1] : 0;

      if (n.cmd === 'M') {
        out.push('M' + fmt(ax) + ' ' + fmt(ay));

      } else if (n.cmd === 'L') {
        out.push('L' + fmt(ax) + ' ' + fmt(ay));

      } else if (n.cmd === 'C') {
        // Find the actual previous node that has an anchor (skip Z etc.)
        var prev   = prevAnchor(i);
        var dp     = disp[prev.idx];
        var prevAx = prev.node.a[0] + dp[0];
        var prevAy = prev.node.a[1] + dp[1];

        // c1: outgoing handle — belongs to prev node, rotates around prev anchor
        var c1x, c1y;
        if (n.c1) {
          var rc1 = rotate(prevAx, prevAy,
                           n.c1[0] + dp[0], n.c1[1] + dp[1],
                           dp[2]);
          c1x = rc1[0]; c1y = rc1[1];
        } else {
          c1x = prevAx; c1y = prevAy;
        }

        // c2: incoming handle — belongs to this node, rotates around this anchor
        var c2x, c2y;
        if (n.c2) {
          var rc2 = rotate(ax, ay,
                           n.c2[0] + d[0], n.c2[1] + d[1],
                           d[2]);
          c2x = rc2[0]; c2y = rc2[1];
        } else {
          c2x = ax; c2y = ay;
        }

        out.push('C' + fmt(c1x) + ' ' + fmt(c1y) +
                 ' '  + fmt(c2x) + ' ' + fmt(c2y) +
                 ' '  + fmt(ax)  + ' ' + fmt(ay));

      } else if (n.cmd === 'Z') {
        out.push('Z');
      }
    }
    return out.join('');
  }

  var t = 0;
  function tick() {
    t += 0.016;
    flamePath.setAttribute('d', buildPath(t));
    requestAnimationFrame(tick);
  }
  tick();
})();
]]></script>
</svg>